<?xml version="1.0" encoding="utf-8"?>
<!-- Generator: Adobe Illustrator 23.0.6, SVG Export Plug-In . SVG Version: 6.00 Build 0)  -->
<svg version="1.1" id="Layer_1" xmlns="http://www.w3.org/2000/svg" xmlns:xlink="http://www.w3.org/1999/xlink" x="0px" y="0px"
	 viewBox="0 0 78.6 60" style="enable-background:new 0 0 78.6 60;" xml:space="preserve">
<style type="text/css">
	.st0{fill:#FFFFFF;}
</style>
<title>ue</title>
<desc>Created with Sketch.</desc>
<g>
	<g>
		<g>
			<g>
				<g>
					<path class="st0" d="M39.3,6C21.5,6,7.5,16.4,6.7,28.9c0,0,0,0.2,0,0.5v0l5.5-1.3l-0.4,2l3.5-0.8V22l-1.7,0.4l-0.2,0.1V21
						l0.1,0l10.7-2.7c0.7-0.2,1.4-0.3,2.1-0.3c2.5,0,4.1,1.1,4.2,3.1c0,0.1,0,0.3,0,0.4l6.8-1.6l0.2-0.1v18.9h1.9V40h-7.9v-1.2h1.7
						V22.4l-3,0.7c-0.6,1.5-2,2.9-4.2,4.1c0.3,0,0.6,0,0.9,0c3.2,0,5.5,1.9,5.5,4.6c0,3.7-3.6,7.5-7.7,8.2C23.5,40,22.4,40,21.3,40
						h-7.7v-1.2l1.7,0l0-7.3l-5.5,1.1l0.4-2.2l-3.5,0.6c0.7,12.6,14.8,23,32.6,23c16.7,0,30.1-9.1,32.3-20.6L67.5,35l-0.2,0.1
						l0.1-1.1l0.1-1L65,33.6l-7.2,1.9v1.8c0,1.3,0.6,1.8,2.2,1.8c2,0,3.4-0.8,4.2-2.3l1.4-0.5c-0.7,2.6-2.8,4-5.8,4
						c-4.8,0-7-3.1-7-6.1c0-4.1,3.6-6.3,6.9-6.3c2.6,0,4.8,1.5,5.5,3.7l3.9-1.1L69,32.6l2.8-0.8l0,0c0.1-0.6,0.1-1.2,0.1-1.8
						C71.9,17,57.6,6,39.3,6z M53.9,38.6V40l-6.2,0.3v-1.8c-0.8,1.2-2.3,1.9-4.2,1.9c-1.8,0-2.8-0.4-3.3-1.3
						c-0.5-0.8-0.5-1.9-0.5-3.3v-5.4l-1.2,0.3v-1.6l5.7-1.4v0.3l0,8.6c0,0.9,0,1.6,0.3,1.9c0.1,0.1,0.3,0.2,0.6,0.2
						c1.4,0,2.6-2.1,2.6-2.9v-5.4l-1,0.3v-1.6l5.5-1.4v10.9L53.9,38.6z M39.3,0.1C17.9,0.1,0.4,13.5,0.4,30s17.4,29.9,38.8,29.9
						S78.1,46.5,78.1,30S60.7,0.1,39.3,0.1z M39.3,55.6C20.4,55.6,5.1,44.1,5.1,30S20.4,4.4,39.3,4.4S73.5,15.9,73.5,30
						S58.2,55.6,39.3,55.6z M57.9,30.3v3.9l3.4-0.8v-3.2c0-0.8-1-1-1.8-1C58.7,29.2,57.9,29.4,57.9,30.3z M20.6,38.6
						c0.3,0,0.6-0.1,0.9-0.2c3.1-0.8,5.6-3.5,5.6-6.1c0-2.1-1.6-3.5-3.9-3.5c-0.5,0-1,0.1-1.6,0.2c-0.3,0.1-0.7,0.2-1,0.3V38.6z
						 M25.3,23c0-1.6-1.4-2.7-3.4-2.7c-0.4,0-0.9,0.1-1.4,0.2l0,7.5C23.2,27.2,25.3,25,25.3,23z"/>
				</g>
			</g>
		</g>
	</g>
</g>
</svg>
